# xmcd
#
# Track frame offsets: 
#        150
#        10424
#        25593
#        41022
#        65888
#        80566
#        99550
#        112818
#        136305
#        156811
#        177887
#        195339
#        211335
#
# Disc length: 2904 seconds
#
# Revision: 0
# Processed by: cddbd v1.5.2PL0 Copyright (c) Steve Scherf et al.
# Submitted via: ExactAudioCopy v1.0b4
#
DISCID=a60b560d
DTITLE=The Mike Eldred Trio - 61 And 49
DYEAR=2011
DGENRE=Blues
TTITLE0=She's A Rocket
TTITLE1=Jake's Boogie
TTITLE2=Louise
TTITLE3=Ms. Gayle's Chicken House
TTITLE4=Jimmy Jimmy
TTITLE5=This Old Train
TTITLE6=I Ain't Coming Back
TTITLE7=Ruby's Blues
TTITLE8=For A Girl
TTITLE9=Mr. Newman
TTITLE10=Lookie Here
TTITLE11=61 And 49
TTITLE12=Don't Go Down There
EXTD=
EXTT0=
EXTT1=
EXTT2=
EXTT3=
EXTT4=
EXTT5=
EXTT6=
EXTT7=
EXTT8=
EXTT9=
EXTT10=
EXTT11=
EXTT12=
PLAYORDER=
